<?xml version="1.0" encoding="UTF-8"?>
<svg width="224px" height="224px" viewBox="0 0 224 224" version="1.1" xmlns="http://www.w3.org/2000/svg" xmlns:xlink="http://www.w3.org/1999/xlink">
    <!-- Generator: Sketch 52.3 (67297) - http://www.bohemiancoding.com/sketch -->
    <title>@2xIcon / User Copy 19</title>
    <desc>Created with Sketch.</desc>
    <g id="Icones" stroke="none" stroke-width="1" fill="none" fill-rule="evenodd">
        <g transform="translate(-231.000000, -1035.000000)">
            <rect fill="#FFFFFF" x="0" y="0" width="800" height="1519"></rect>
            <g id="Icon-/-Edit-2-Copy" transform="translate(331.000000, 1135.000000)" fill="#605751">
                <path d="M13.984375,11.9921875 C13.984375,12.5546903 13.7890645,13.031248 13.3984375,13.421875 C13.0078105,13.812502 12.5390652,14.0078125 11.9921875,14.0078125 C11.4453098,14.0078125 10.9765645,13.812502 10.5859375,13.421875 C10.1953105,13.031248 10,12.5546903 10,11.9921875 C10,11.4453098 10.1953105,10.9765645 10.5859375,10.5859375 C10.9765645,10.1953105 11.4453098,10 11.9921875,10 C12.5390652,10 13.0078105,10.1953105 13.3984375,10.5859375 C13.7890645,10.9765645 13.984375,11.4453098 13.984375,11.9921875 Z M5.9921875,10 C6.53906523,10 7.00781055,10.1953105 7.3984375,10.5859375 C7.78906445,10.9765645 7.984375,11.4453098 7.984375,11.9921875 C7.984375,12.5546903 7.78906445,13.031248 7.3984375,13.421875 C7.00781055,13.812502 6.53906523,14.0078125 5.9921875,14.0078125 C5.44530977,14.0078125 4.97656445,13.812502 4.5859375,13.421875 C4.19531055,13.031248 4,12.5546903 4,11.9921875 C4,11.4453098 4.19531055,10.9765645 4.5859375,10.5859375 C4.97656445,10.1953105 5.44530977,10 5.9921875,10 Z M17.9921875,10 C18.5390652,10 19.0078105,10.1953105 19.3984375,10.5859375 C19.7890645,10.9765645 19.984375,11.4453098 19.984375,11.9921875 C19.984375,12.5546903 19.7890645,13.031248 19.3984375,13.421875 C19.0078105,13.812502 18.5390652,14.0078125 17.9921875,14.0078125 C17.4453098,14.0078125 16.9765645,13.812502 16.5859375,13.421875 C16.1953105,13.031248 16,12.5546903 16,11.9921875 C16,11.4453098 16.1953105,10.9765645 16.5859375,10.5859375 C16.9765645,10.1953105 17.4453098,10 17.9921875,10 Z" id="icon"></path>
            </g>
        </g>
    </g>
</svg>