<?xml version="1.0" encoding="UTF-8" standalone="no"?>
<svg
   xmlns:dc="http://purl.org/dc/elements/1.1/"
   xmlns:cc="http://creativecommons.org/ns#"
   xmlns:rdf="http://www.w3.org/1999/02/22-rdf-syntax-ns#"
   xmlns:svg="http://www.w3.org/2000/svg"
   xmlns="http://www.w3.org/2000/svg"
   xmlns:sodipodi="http://sodipodi.sourceforge.net/DTD/sodipodi-0.dtd"
   xmlns:inkscape="http://www.inkscape.org/namespaces/inkscape"
   width="24px"
   height="24px"
   viewBox="0 0 24 24"
   version="1.1"
   id="svg13"
   sodipodi:docname="arrowDown_red.svg"
   inkscape:version="0.92.4 (5da689c313, 2019-01-14)">
  <metadata
     id="metadata17">
    <rdf:RDF>
      <cc:Work
         rdf:about="">
        <dc:format>image/svg+xml</dc:format>
        <dc:type
           rdf:resource="http://purl.org/dc/dcmitype/StillImage" />
        <dc:title>Icon / Small</dc:title>
      </cc:Work>
    </rdf:RDF>
  </metadata>
  <sodipodi:namedview
     pagecolor="#ffffff"
     bordercolor="#666666"
     borderopacity="1"
     objecttolerance="10"
     gridtolerance="10"
     guidetolerance="10"
     inkscape:pageopacity="0"
     inkscape:pageshadow="2"
     inkscape:window-width="1920"
     inkscape:window-height="1017"
     id="namedview15"
     showgrid="false"
     inkscape:zoom="9.8333333"
     inkscape:cx="-4.5254237"
     inkscape:cy="12"
     inkscape:window-x="-8"
     inkscape:window-y="-8"
     inkscape:window-maximized="1"
     inkscape:current-layer="Icon-/-Small" />
  <!-- Generator: Sketch 51.3 (57544) - http://www.bohemiancoding.com/sketch -->
  <title
     id="title2">Icon / Small</title>
  <desc
     id="desc4">Created with Sketch.</desc>
  <defs
     id="defs6" />
  <g
     id="Icon-/-Small"
     stroke="none"
     stroke-width="1"
     fill="none"
     fill-rule="evenodd">
    <g
       id="icon-/-small">
      <rect
         id="Rectangle"
         fill-rule="nonzero"
         x="0"
         y="0"
         width="24"
         height="24" />
      <g
         id="small-up-outline-16-copy-4"
         transform="translate(7.000000, 9.000000)"
         stroke="#8b8b8b"
         stroke-linecap="round"
         stroke-linejoin="round">
        <polyline
           id="Shape"
           transform="translate(5.000000, 3.000000) rotate(180.000000) translate(-5.000000, -3.000000) "
           points="0 5.57142857 4.86394558 0 9.72789116 5.57142857" />
      </g>
    </g>
    <path
       style="stroke-width:0.10169491"
       d="M 9.3575429,12.510397 C 7.958352,10.911794 6.8135593,9.5251835 6.8135593,9.4290413 c 0,-0.096142 0.054915,-0.2297193 0.1220339,-0.2968379 0.3390491,-0.3390491 0.544086,-0.1600611 2.8914456,2.5241016 1.8136472,2.073872 2.3395632,2.618197 2.4318282,2.516949 0.06475,-0.07105 1.073334,-1.227491 2.241301,-2.569864 1.167967,-1.342373 2.170098,-2.4742994 2.226958,-2.5153921 0.20398,-0.1474154 0.555317,-0.075094 0.669232,0.1377595 0.149507,0.279356 0.18506,0.2327101 -2.683918,3.5213776 -1.819046,2.085146 -2.381857,2.669814 -2.570007,2.669814 -0.188453,0 -0.794815,-0.632851 -2.7848901,-2.906552 z"
       id="path139"
       inkscape:connector-curvature="0" />
    <path
       style="stroke-width:0.10169491"
       d="M 9.3575429,12.510397 C 7.958352,10.911794 6.8135593,9.5251835 6.8135593,9.4290413 c 0,-0.096142 0.054915,-0.2297193 0.1220339,-0.2968379 0.3390491,-0.3390491 0.544086,-0.1600611 2.8914456,2.5241016 1.8136472,2.073872 2.3395632,2.618197 2.4318282,2.516949 0.06475,-0.07105 1.073334,-1.227491 2.241301,-2.569864 1.167967,-1.342373 2.170098,-2.4742994 2.226958,-2.5153921 0.20398,-0.1474154 0.555317,-0.075094 0.669232,0.1377595 0.149507,0.279356 0.18506,0.2327101 -2.683918,3.5213776 -1.819046,2.085146 -2.381857,2.669814 -2.570007,2.669814 -0.188453,0 -0.794815,-0.632851 -2.7848901,-2.906552 z"
       id="path141"
       inkscape:connector-curvature="0" />
    <path
       style="stroke-width:0.10169491;fill:#9e0616;fill-opacity:1"
       d="M 9.3575429,12.510397 C 7.958352,10.911794 6.8135593,9.5251835 6.8135593,9.4290413 c 0,-0.096142 0.054915,-0.2297193 0.1220339,-0.2968379 0.3390491,-0.3390491 0.544086,-0.1600611 2.8914456,2.5241016 1.8136472,2.073872 2.3395632,2.618197 2.4318282,2.516949 0.06475,-0.07105 1.073334,-1.227491 2.241301,-2.569864 1.167967,-1.342373 2.170098,-2.4742994 2.226958,-2.5153921 0.20398,-0.1474154 0.555317,-0.075094 0.669232,0.1377595 0.149507,0.279356 0.18506,0.2327101 -2.683918,3.5213776 -1.819046,2.085146 -2.381857,2.669814 -2.570007,2.669814 -0.188453,0 -0.794815,-0.632851 -2.7848901,-2.906552 z"
       id="path143"
       inkscape:connector-curvature="0" />
  </g>
</svg>
