<svg xmlns="http://www.w3.org/2000/svg" xmlns:xlink="http://www.w3.org/1999/xlink" width="24" height="24" version="1.1"><rect id="backgroundrect" width="100%" height="100%" x="0" y="0" fill="none" stroke="none"/>
    <!-- Generator: Sketch 51.3 (57544) - http://www.bohemiancoding.com/sketch -->
    <title>Icon / Busca</title>
    <desc>Created with Sketch.</desc>
    <defs/>
    
<g class="currentLayer" style=""><title>Layer 1</title><g id="Icon-/-Busca" style="" color="#9E0616" stroke="none" stroke-width="1" fill="#9e0616" fill-rule="evenodd" fill-opacity="1" class="">
        <path d="M15.4369354,14.062317759999999 L14.7105775,14.062317759999999 L14.4580903,13.8116746 C15.3500286,12.7715968 15.89251,11.4232462 15.89251,9.945915 C15.89251,6.661940399999999 13.2304174,4 9.946255,4 C6.66209262,4 4,6.661940399999999 4,9.945915 C4,13.2298897 6.66209262,15.89183008 9.946255,15.89183008 C11.4236707,15.89183008 12.7711835,15.350294439999999 13.8113208,14.45932194 L14.0638079,14.70996512 L14.0638079,15.434452 L18.636020600000002,20 L20,18.63609856 L15.4369354,14.062317759999999 L15.4369354,14.062317759999999 zM9.946255,14.062317759999999 C7.67204117,14.062317759999999 5.82961692,12.2199989 5.82961692,9.945915 C5.82961692,7.672746 7.67204117,5.829512300000001 9.946255,5.829512300000001 C12.219554,5.829512300000001 14.0628931,7.672746 14.0628931,9.945915 C14.0628931,12.2199989 12.219554,14.062317759999999 9.946255,14.062317759999999 L9.946255,14.062317759999999 z" id="Mask" fill="#9e0616" fill-opacity="1"/>
    </g></g></svg>