<?xml version="1.0" encoding="UTF-8"?>
<svg width="232px" height="233px" viewBox="0 0 232 233" version="1.1" xmlns="http://www.w3.org/2000/svg" xmlns:xlink="http://www.w3.org/1999/xlink">
    <!-- Generator: Sketch 52.2 (67145) - http://www.bohemiancoding.com/sketch -->
    <title>Icon / Small Copy</title>
    <desc>Created with Sketch.</desc>
    <g id="Icones" stroke="none" stroke-width="1" fill="none" fill-rule="evenodd">
        <g transform="translate(0.000000, -644.000000)">
            <rect fill="#FFFFFF" x="0" y="0" width="800" height="1268"></rect>
            <g id="Icon-/-atendimento-telefone-atual" transform="translate(100.000000, 745.000000)" fill-rule="nonzero">
                <path d="M15.5,0 L15.5,0 C24.0604136,-1.57252247e-15 31,6.93958638 31,15.5 L31,15.5 C31,24.0604136 24.0604136,31 15.5,31 L15.5,31 C6.93958638,31 1.04834831e-15,24.0604136 0,15.5 L0,15.5 C-1.04834831e-15,6.93958638 6.93958638,1.57252247e-15 15.5,0 Z" id="Rectangle-3-Copy-3" stroke="#B5B6B3" stroke-width="1" fill="#FFFFFF"></path>
                <circle id="Oval-5-Copy-6" stroke="#00AF3F" stroke-width="1.51219512" fill="#00AF3F" cx="15.5" cy="15.5" r="15.5"></circle>
                <path d="M12.6331314,18.1846797 C14.8307698,20.8996636 20.1863591,23.5015233 21.4790875,22.9170475 C22.771816,22.3325718 23.0488292,21.0693501 22.9934266,20.4848744 C22.9380239,19.9003987 20.0016836,18.1092635 19.2629816,17.7698905 C18.5242797,17.4305175 17.6747724,18.5240527 17.2684863,18.9954041 C16.8437327,19.4479014 15.2185883,18.0715553 14.5168215,17.3739553 C14.5168215,17.3739553 12.6700665,15.2623011 13.0948202,14.8098038 C13.5195738,14.3573065 14.5722241,13.4523118 14.2028731,12.7170037 C13.8335221,11.9816955 11.9682997,9.0404629 11.3773381,9.00275479 C10.8048441,8.96504667 9.58598582,9.30441967 9.06889444,10.6430576 C8.55180306,11.9816955 11.0264547,17.0911445 13.7781195,19.2216527" id="Path" fill="#FFFFFF"></path>
            </g>
        </g>
    </g>
</svg>