<?xml version="1.0" encoding="UTF-8"?>
<svg width="224px" height="224px" viewBox="0 0 224 224" version="1.1" xmlns="http://www.w3.org/2000/svg" xmlns:xlink="http://www.w3.org/1999/xlink">
    <!-- Generator: Sketch 52.3 (67297) - http://www.bohemiancoding.com/sketch -->
    <title>@2xIcon / Small Copy 2</title>
    <desc>Created with Sketch.</desc>
    <g id="Icones" stroke="none" stroke-width="1" fill="none" fill-rule="evenodd">
        <g transform="translate(0.000000, -774.000000)">
            <rect fill="#FFFFFF" x="0" y="0" width="800" height="1519"></rect>
            <g id="Icon-/-Barcode" transform="translate(100.000000, 874.000000)" fill="#000000" fill-rule="nonzero">
                <path d="M5.93333333,16 L5.93333333,8 L5,8 L5,16 L5.93333333,16 Z M10.6,8 L9.66666667,8 L9.66666667,16 L10.6,16 L11.5333333,16 L11.5333333,8 L10.6,8 Z M13.4,16 L13.4,8 L12.4666667,8 L12.4666667,16 L13.4,16 Z M19,16 L19,8 L18.0666667,8 L18.0666667,16 L19,16 Z M16.2,8 L15.2666667,8 L15.2666667,16 L16.2,16 L17.1333333,16 L17.1333333,8 L16.2,8 Z M7.8,8 L6.86666667,8 L6.86666667,16 L7.8,16 L8.73333333,16 L8.73333333,8 L7.8,8 Z" id="Shape"></path>
            </g>
        </g>
    </g>
</svg>