<?xml version="1.0" encoding="utf-8"?>
<!-- Generator: Adobe Illustrator 21.0.2, SVG Export Plug-In . SVG Version: 6.00 Build 0)  -->
<svg version="1.1" id="Layer_1" focusable="false" xmlns="http://www.w3.org/2000/svg" xmlns:xlink="http://www.w3.org/1999/xlink"
	 x="0px" y="0px" viewBox="0 0 380.8 343.8" style="enable-background:new 0 0 380.8 343.8;" xml:space="preserve">
<style type="text/css">
	.st0{fill:#FFFFFF;}
</style>
<path d="M168,140.8v15.9c0,3.7-3.1,6.8-7,6.8H63c-3.8,0-7-3.1-7-6.8v-15.9c0-3.7,3.1-6.8,7-6.8h98C164.8,134,168,137.1,168,140.8z
	 M161,181.7H63c-3.8,0-7,3.1-7,6.8v15.9c0,3.7,3.1,6.8,7,6.8h98c3.8,0,7-3.1,7-6.8v-15.9C168,184.7,164.8,181.7,161,181.7z
	 M224,74.9v188.5c0,15-12.5,27.3-28,27.3H28c-15.5,0-28-12.2-28-27.3V27.3C0,12.2,12.5,0,28,0h119c7.4,0,14.5,2.9,19.8,8l48.9,47.6
	C221,60.7,224,67.7,224,74.9z M149.3,29.5v43.2h44.4C193.7,72.7,149.3,29.5,149.3,29.5z M196,263.4V99.9h-60.7
	c-7.8,0-14-6.1-14-13.6v-59H28v236.2H196z"/>
<path class="st0" d="M275.9,350.1h-96.5c-16.5,0-30-13.5-30-30V73.9c0-16.5,13.5-30,30-30h96.5c16.5,0,30,13.5,30,30v246.2
	C305.9,336.6,292.4,350.1,275.9,350.1z"/>
<path d="M324.8,193.9v15.9c0,3.7-3.1,6.8-7,6.8h-98c-3.8,0-7-3.1-7-6.8v-15.9c0-3.7,3.1-6.8,7-6.8h98
	C321.7,187.1,324.8,190.1,324.8,193.9z M317.8,234.8h-98c-3.8,0-7,3.1-7,6.8v15.9c0,3.7,3.1,6.8,7,6.8h98c3.8,0,7-3.1,7-6.8v-15.9
	C324.8,237.8,321.7,234.8,317.8,234.8z M380.8,128v188.5c0,15-12.5,27.3-28,27.3h-168c-15.5,0-28-12.2-28-27.3V80.3
	c0-15,12.5-27.3,28-27.3h119c7.4,0,14.5,2.9,19.8,8l48.9,47.6C377.8,113.8,380.8,120.8,380.8,128z M306.2,82.6v43.2h44.4
	C350.5,125.8,306.2,82.6,306.2,82.6z M352.8,316.5V153h-60.7c-7.8,0-14-6.1-14-13.6v-59h-93.3v236.2H352.8z"/>
</svg>
