<?xml version="1.0" encoding="UTF-8"?>
<svg width="232px" height="232px" viewBox="0 0 232 232" version="1.1" xmlns="http://www.w3.org/2000/svg" xmlns:xlink="http://www.w3.org/1999/xlink">
    <!-- Generator: Sketch 52.3 (67297) - http://www.bohemiancoding.com/sketch -->
    <title>@2xIcon / User Copy 10</title>
    <desc>Created with Sketch.</desc>
    <g id="Icones" stroke="none" stroke-width="1" fill="none" fill-rule="evenodd">
        <g transform="translate(-116.000000, -774.000000)">
            <rect fill="#FFFFFF" x="0" y="0" width="800" height="1519"></rect>
            <g id="Icon-/-Religa" transform="translate(216.000000, 874.000000)" fill="#9E0616">
                <g id="flash-21-colored-48" transform="translate(8.000000, 7.000000)">
                    <path d="M6.31558316,17.6842105 C6.24773895,17.6842105 6.17927579,17.6677642 6.11636632,17.6340463 C5.94675368,17.5427621 5.86061053,17.3478611 5.90728,17.1609768 L7.46073263,10.9473684 L0.421052632,10.9473684 C0.254113684,10.9473684 0.102795789,10.8486821 0.0355663158,10.6959284 C-0.0316631579,10.5429684 -0.00205473684,10.3649263 0.110610526,10.2417768 L9.37376842,0.136513684 C9.50411368,-0.00554947368 9.71402526,-0.04112 9.88363789,0.0501642105 C10.0532505,0.141448421 10.1393937,0.336349474 10.0927242,0.523233684 L8.53926737,6.73684211 L15.5789474,6.73684211 C15.7458863,6.73684211 15.8972042,6.83552842 15.9644337,6.98828211 C16.0316632,7.14124211 16.0020589,7.31928421 15.8893937,7.44243368 L6.62623579,17.5476968 C6.54420211,17.6369263 6.43071579,17.6842105 6.31558316,17.6842105 Z" id="Path"></path>
                </g>
            </g>
        </g>
    </g>
</svg>