<?xml version="1.0" encoding="UTF-8"?>
<svg width="225px" height="225px" viewBox="0 0 225 225" version="1.1" xmlns="http://www.w3.org/2000/svg" xmlns:xlink="http://www.w3.org/1999/xlink">
    <!-- Generator: Sketch 52.3 (67297) - http://www.bohemiancoding.com/sketch -->
    <title>@2xIcon / User Copy 16</title>
    <desc>Created with Sketch.</desc>
    <g id="Icones" stroke="none" stroke-width="1" fill="none" fill-rule="evenodd">
        <g transform="translate(-347.000000, -900.000000)">
            <rect fill="#FFFFFF" x="0" y="0" width="800" height="1519"></rect>
            <g id="Icon-/-Talk-Copy-2" transform="translate(447.000000, 1000.000000)">
                <g id="icon-/-small">
                    <rect id="Rectangle" fill-rule="nonzero" x="0" y="0" width="25" height="25"></rect>
                    <path d="M10.7367235,19.6843042 C10.6858402,19.6843042 10.6344928,19.6715779 10.5873106,19.6454866 C10.4601009,19.5748499 10.3954935,19.4240334 10.4304956,19.2794204 L11.595587,14.4712635 L6.31581848,14.4712635 C6.19061407,14.4712635 6.07712547,14.394899 6.02670328,14.2766966 C5.97628109,14.1583345 5.99848744,14.0205636 6.08298653,13.9252692 L13.0303661,6.10570824 C13.1281252,5.99577824 13.2855592,5.96825339 13.4127688,6.03889009 C13.5399785,6.10952679 13.604586,6.26034332 13.5695838,6.40495632 L12.4044893,11.2131131 L17.6842578,11.2131131 C17.8094622,11.2131131 17.9229508,11.2894777 17.973373,11.4076801 C18.0237952,11.5260422 18.001592,11.6638131 17.9170929,11.7591075 L10.9697133,19.5786684 C10.908188,19.6477152 10.8230731,19.6843042 10.7367235,19.6843042 Z" id="Path" stroke="#000000"></path>
                </g>
            </g>
        </g>
    </g>
</svg>