<?xml version="1.0" encoding="UTF-8"?>
<svg width="232px" height="232px" viewBox="0 0 232 232" version="1.1" xmlns="http://www.w3.org/2000/svg" xmlns:xlink="http://www.w3.org/1999/xlink">
    <!-- Generator: Sketch 52.3 (67297) - http://www.bohemiancoding.com/sketch -->
    <title>@2xIcon / User Copy 11</title>
    <desc>Created with Sketch.</desc>
    <g id="Icones" stroke="none" stroke-width="1" fill="none" fill-rule="evenodd">
        <g transform="translate(-225.000000, -774.000000)">
            <rect fill="#FFFFFF" x="0" y="0" width="800" height="1519"></rect>
            <g id="Icon-/-Sair" transform="translate(325.000000, 874.000000)">
                <g id="circle-out-colored-48" transform="translate(16.000000, 16.500000) scale(-1, 1) translate(-16.000000, -16.500000) translate(2.000000, 7.000000)">
                    <path d="M17.6666667,0 C12.4282437,0 8.16666667,4.26157706 8.16666667,9.5 C8.16666667,14.7384229 12.4282437,19 17.6666667,19 C22.9050896,19 27.1666667,14.7384229 27.1666667,9.5 C27.1666667,4.26157706 22.9050896,0 17.6666667,0 Z" id="Path" fill="#E1E1E1" opacity="0.630812872"></path>
                    <path d="M19.5659722,7.82717297 L5.03125,7.82717297 L5.03125,5.3451322 C5.03125,5.10274851 4.90404882,4.88277765 4.70587906,4.78128079 C4.50770931,4.67978394 4.27405247,4.71613963 4.10863615,4.87399122 L0.195441701,8.59705238 C0.0715164236,8.71491208 0,8.88701059 0,9.06819336 C0,9.24937613 0.0715164236,9.42147463 0.195441701,9.53933434 L4.10863615,13.2623955 C4.2118159,13.3605602 4.34119729,13.4117647 4.47222222,13.4117647 C4.55138056,13.4117647 4.63108674,13.3929819 4.70587906,13.3551059 C4.90404882,13.2536091 5.03125,13.0336382 5.03125,12.7912545 L5.03125,10.3092137 L19.5659722,10.3092137 C19.8747121,10.3092137 20.125,10.0313989 20.125,9.68870355 L20.125,8.44768316 C20.125,8.10498779 19.8747121,7.82717297 19.5659722,7.82717297 Z" id="Path" fill="#9E0616"></path>
                </g>
            </g>
        </g>
    </g>
</svg>