<?xml version="1.0" encoding="UTF-8"?>
<svg width="232px" height="232px" viewBox="0 0 232 232" version="1.1" xmlns="http://www.w3.org/2000/svg" xmlns:xlink="http://www.w3.org/1999/xlink">
    <!-- Generator: Sketch 52.3 (67297) - http://www.bohemiancoding.com/sketch -->
    <title>@2xIcon / User Copy 14</title>
    <desc>Created with Sketch.</desc>
    <g id="Icones" stroke="none" stroke-width="1" fill="none" fill-rule="evenodd">
        <g transform="translate(-568.000000, -774.000000)">
            <rect fill="#FFFFFF" x="0" y="0" width="800" height="1519"></rect>
            <g id="Icon-/-Falta-de-energia" transform="translate(668.000000, 874.000000)">
                <g id="power-level-colored-48" transform="translate(6.000000, 6.000000)">
                    <path d="M12.2560818,17.4516136 C12.1309045,16.4284409 9.37411364,9.28355455 9.06028182,8.47234545 C8.98326818,8.27348182 8.78063182,8.15607273 8.56800455,8.18692273 C8.35737727,8.21888182 8.19735455,8.39310909 8.18292727,8.60573636 C8.125,9.46111818 7.62073636,16.9924091 7.74391818,18.0027091 C7.88463182,19.1537227 8.86718636,20.0002227 9.99866818,20.0002227 C10.0901091,20.0002227 10.1824409,19.9946727 10.2754364,19.9833545 C11.5194409,19.8313227 12.4078909,18.6956227 12.2560818,17.4516136 Z" id="Path" fill="#9E0616"></path>
                    <path d="M19.8992364,5.01731364 C17.5936591,1.87566364 13.8929318,0 10,0 L10,4.54545455 C12.4513955,4.54545455 14.7822727,5.72731818 16.2349091,7.70685455 C16.3061545,7.80406818 16.4131318,7.86887727 16.5323182,7.88707273 C16.6526136,7.90549545 16.77335,7.87553182 16.8703409,7.80428636 L19.8018045,5.65274091 C20.0042182,5.50426364 20.0477182,5.21972727 19.8992364,5.01731364 Z" id="Path" fill="#E1E1E1"></path>
                    <path d="M0.0994318182,5.01930909 C-0.04905,5.22172273 -0.00532727273,5.50603636 0.197086364,5.65451818 L3.12899545,7.80561818 C3.20734091,7.86332273 3.30166818,7.89373182 3.39777273,7.89373182 C3.42063182,7.89373182 3.44371364,7.89195455 3.4668,7.88840455 C3.58598636,7.87020455 3.69296364,7.80517273 3.76420909,7.70796364 C5.21706364,5.72775909 7.54816364,4.54545455 10,4.54545455 L10,0 C6.10617727,0 2.40500909,1.87633182 0.0994318182,5.01930909 Z" id="Path" fill-opacity="0.438292572" fill="#000000"></path>
                </g>
            </g>
        </g>
    </g>
</svg>