<svg xmlns="http://www.w3.org/2000/svg" xmlns:xlink="http://www.w3.org/1999/xlink" version="1.1" style="enable-background:new 0 0 595.28 302.31;" xml:space="preserve" width="245" height="54"><rect id="backgroundrect" width="100%" height="100%" x="0" y="0" fill="none" stroke="none" class="" style=""/>
<style type="text/css">
	.st0{fill:none;stroke:#ED1C24;stroke-width:6.2996;stroke-linecap:round;stroke-linejoin:round;stroke-miterlimit:10;}
</style>

<g class="currentLayer" style=""><title>Layer 1</title><g id="svg_1" class="">
	<g id="svg_2">
		<path d="M9.956392431259161,40.28051383972169 h22.32 c1.77,0 3.2,1.4300000000000002 3.2,3.26 c0,1.77 -1.4300000000000002,3.21 -3.2,3.21 h-25.75 c-1.8900000000000001,0 -3.43,-1.54 -3.43,-3.49 v-33.42 c0,-1.8900000000000001 1.55,-3.43 3.43,-3.43 c1.8900000000000001,0 3.43,1.54 3.43,3.43 V40.28051383972169 z" id="svg_3"/>
		<path d="M70.33639243125916,43.71051383972167 c0,1.83 -1.49,3.3200000000000003 -3.3200000000000003,3.3200000000000003 c-1.77,0 -3.26,-1.49 -3.26,-3.3200000000000003 v-0.23 c-1.83,1.4300000000000002 -5.55,3.83 -10.41,3.83 c-7.84,0 -13.22,-5.38 -13.22,-12.7 v-15.74 c0,-1.83 1.49,-3.3200000000000003 3.26,-3.3200000000000003 c1.83,0 3.3200000000000003,1.49 3.3200000000000003,3.3200000000000003 v13.96 c0,5.32 3.21,8.07 8.13,8.07 c4.41,0 7.38,-2.75 8.93,-4.6400000000000015 v-17.4 c0,-1.83 1.49,-3.3200000000000003 3.26,-3.3200000000000003 c1.83,0 3.3200000000000003,1.49 3.3200000000000003,3.3200000000000003 V43.71051383972167 z" id="svg_4"/>
		<path d="M80.63639243125917,18.880513839721687 c0,-1.83 1.49,-3.3200000000000003 3.3200000000000003,-3.3200000000000003 c1.77,0 3.26,1.49 3.26,3.3200000000000003 c1.4300000000000002,-1.49 4.29,-3.6100000000000003 8.870000000000001,-3.6100000000000003 c4.46,0 7.44,1.77 9.27,4.35 c1.6,-1.7200000000000002 4.98,-4.35 10.870000000000001,-4.35 c8.24,0 12.08,5.44 12.08,12.76 v15.68 c0,1.83 -1.49,3.3200000000000003 -3.26,3.3200000000000003 c-1.83,0 -3.3200000000000003,-1.49 -3.3200000000000003,-3.3200000000000003 v-13.91 c0,-5.15 -2.46,-8.13 -6.7,-8.13 c-3.7800000000000002,0 -6.18,2.4 -7.38,4.18 c0.06000000000000003,0.6900000000000006 0.11000000000000004,1.4300000000000002 0.11000000000000004,2.17 v15.68 c0,1.83 -1.49,3.3200000000000003 -3.26,3.3200000000000003 c-1.83,0 -3.3200000000000003,-1.49 -3.3200000000000003,-3.3200000000000003 v-13.91 c0,-5.15 -2.35,-8.13 -6.75,-8.13 c-3.72,0 -6.01,2.35 -7.21,4.29 v17.74 c0,1.83 -1.49,3.3200000000000003 -3.26,3.3200000000000003 c-1.83,0 -3.3200000000000003,-1.49 -3.3200000000000003,-3.3200000000000003 V18.880513839721687 z" id="svg_5"/>
		<path d="M167.73639243125916,43.71051383972167 c0,1.83 -1.49,3.3200000000000003 -3.3200000000000003,3.3200000000000003 c-1.77,0 -3.26,-1.49 -3.26,-3.3200000000000003 v-0.23 c-1.83,1.4300000000000002 -5.55,3.83 -10.42,3.83 c-7.84,0 -13.22,-5.38 -13.22,-12.7 v-15.74 c0,-1.83 1.49,-3.3200000000000003 3.26,-3.3200000000000003 c1.83,0 3.3200000000000003,1.49 3.3200000000000003,3.3200000000000003 v13.96 c0,5.32 3.2,8.07 8.13,8.07 c4.41,0 7.38,-2.75 8.93,-4.6400000000000015 v-17.4 c0,-1.83 1.49,-3.3200000000000003 3.26,-3.3200000000000003 c1.83,0 3.3200000000000003,1.49 3.3200000000000003,3.3200000000000003 V43.71051383972167 z" id="svg_6"/>
		<path d="M180.55639243125916,39.25051383972169 c1.83,1.1400000000000001 5.49,2.35 9.39,2.35 c5.21,0 7.5,-1.7200000000000002 7.5,-3.7800000000000002 c0,-6.41 -21.23,0.46 -21.23,-13.1 c0,-4.98 3.89,-9.73 15.17,-9.73 c3.72,0 7.9,0.8 10.13,2.17 c3.7800000000000002,2.29 0.97,7.27 -3.03,5.32 c-2,-0.97 -5.27,-1.49 -7.95,-1.49 c-5.61,0 -7.73,1.77 -7.73,3.66 c0,6.7 21.23,-0.51 21.23,13.11 c0,5.78 -5.32,9.84 -13.79,9.84 c-6.47,0 -10.99,-1.4300000000000002 -13.56,-3.55 C173.23639243125916,41.25051383972169 176.60639243125917,36.79051383972168 180.55639243125916,39.25051383972169 z" id="svg_7"/>
	</g>
	<g id="svg_8">
		<polyline class="st0" points="236.01638793945312,48.84051322937012 223.82638549804688,45.28051567077637 236.01638793945312,39.49050712585449 223.82638549804688,35.93050956726074 " id="svg_9"/>
		<path class="st0" d="M221.34639243125918,25.50051383972169 c-4.62,-4.74 -4.52,-12.33 0.22000000000000008,-16.94 c4.74,-4.62 12.33,-4.52 16.94,0.22000000000000008 s4.52,12.33 -0.22000000000000008,16.94 " id="svg_10"/>
	</g>
</g></g></svg>
