<?xml version="1.0" encoding="UTF-8"?>
<svg width="224px" height="224px" viewBox="0 0 224 224" version="1.1" xmlns="http://www.w3.org/2000/svg" xmlns:xlink="http://www.w3.org/1999/xlink">
    <!-- Generator: Sketch 52.3 (67297) - http://www.bohemiancoding.com/sketch -->
    <title>@2xIcon / Small Copy 3</title>
    <desc>Created with Sketch.</desc>
    <g id="Icones" stroke="none" stroke-width="1" fill="none" fill-rule="evenodd">
        <g transform="translate(0.000000, -903.000000)">
            <rect fill="#FFFFFF" x="0" y="0" width="800" height="1519"></rect>
            <g id="Icon-/-more" transform="translate(100.000000, 1003.000000)">
                <path d="M12,3 L12,3 C16.9705627,3 21,7.02943725 21,12 L21,12 C21,16.9705627 16.9705627,21 12,21 L12,21 C7.02943725,21 3,16.9705627 3,12 L3,12 C3,7.02943725 7.02943725,3 12,3 Z" id="Rectangle-3-Copy-3" fill-opacity="0.9" fill="#000000" fill-rule="nonzero"></path>
                <g id="Icon-/-mais" stroke-width="1" fill-rule="evenodd" transform="translate(7.500000, 7.500000)" fill="#FFFFFF">
                    <polygon id="Rectangle-5" fill-rule="nonzero" points="0 3.75 9 3.75 9 5.25 0 5.25"></polygon>
                    <polygon id="Rectangle-2" fill-rule="nonzero" points="3.75 0 5.25 0 5.25 9 3.75 9"></polygon>
                </g>
            </g>
        </g>
    </g>
</svg>