<?xml version="1.0" encoding="UTF-8"?>
<svg width="233px" height="233px" viewBox="0 0 233 233" version="1.1" xmlns="http://www.w3.org/2000/svg" xmlns:xlink="http://www.w3.org/1999/xlink">
    <!-- Generator: Sketch 52.3 (67297) - http://www.bohemiancoding.com/sketch -->
    <title>@2xIcon / User Copy 6</title>
    <desc>Created with Sketch.</desc>
    <g id="Icones" stroke="none" stroke-width="1" fill="none" fill-rule="evenodd">
        <g transform="translate(-228.000000, -644.000000)">
            <rect fill="#FFFFFF" x="0" y="0" width="800" height="1519"></rect>
            <g id="Icon-/-atendimento-chatbot--Copy" transform="translate(329.000000, 745.000000)">
                <path d="M15.5,0 L15.5,0 C24.0604136,-1.57252247e-15 31,6.93958638 31,15.5 L31,15.5 C31,24.0604136 24.0604136,31 15.5,31 L15.5,31 C6.93958638,31 1.04834831e-15,24.0604136 0,15.5 L0,15.5 C-1.04834831e-15,6.93958638 6.93958638,1.57252247e-15 15.5,0 Z" id="Rectangle-3-Copy-3" stroke="#B5B6B3" fill="#FFFFFF" fill-rule="nonzero"></path>
                <g id="network-connection-glyph-12" fill-rule="evenodd" transform="translate(8.000000, 9.000000)" fill="#00AF3F">
                    <path d="M10.5,4.61538462 C11.4867304,4.61567339 12.366973,4.00207083 12.6984352,3.08289181 C13.0298974,2.16371278 12.7409132,1.13769476 11.9766875,0.520377625 C11.2124617,-0.0969395065 10.1382292,-0.172084412 9.29375594,0.33270072 C8.44928271,0.837485853 8.01715396,1.81306045 8.2145,2.76923077 L4.81366667,5.01692308 C3.8419991,4.358636 2.5266302,4.51972803 1.74666455,5.39253604 C0.966698887,6.26534405 0.966698887,7.57619441 1.74666455,8.44900242 C2.5266302,9.32181043 3.8419991,9.48290247 4.81366667,8.82461538 L8.2145,11.0769231 C7.98754894,12.1584644 8.56734463,13.2473993 9.59743681,13.674266 C10.627529,14.1011327 11.8190227,13.746214 12.4394044,12.827709 C13.059786,11.909204 12.9350662,10.6847124 12.1419209,9.90703445 C11.3487756,9.12935648 10.1096467,9.01659614 9.18633333,9.63807692 L5.7855,7.39038462 C5.84927149,7.08203831 5.84927149,6.76411554 5.7855,6.45576923 L9.18633333,4.21384615 C9.57318371,4.47580566 10.0311618,4.61579233 10.5,4.61538462 Z" id="Path"></path>
                </g>
            </g>
        </g>
    </g>
</svg>