<?xml version="1.0" encoding="UTF-8"?>
<svg width="232px" height="232px" viewBox="0 0 232 232" version="1.1" xmlns="http://www.w3.org/2000/svg" xmlns:xlink="http://www.w3.org/1999/xlink">
    <!-- Generator: Sketch 52.3 (67297) - http://www.bohemiancoding.com/sketch -->
    <title>@2xIcon / User Copy 12</title>
    <desc>Created with Sketch.</desc>
    <g id="Icones" stroke="none" stroke-width="1" fill="none" fill-rule="evenodd">
        <g transform="translate(-344.000000, -774.000000)">
            <rect fill="#FFFFFF" x="0" y="0" width="800" height="1519"></rect>
            <g id="Icon-/-Tranferencia" transform="translate(444.000000, 874.000000)">
                <g id="shuffle-98-colored-48" transform="translate(6.000000, 8.000000)">
                    <path d="M19.8446364,13.0696 L16.2082727,16.2514182 C16.0746591,16.3681636 15.8833455,16.3970136 15.7213227,16.3228864 C15.5588591,16.2491955 15.4545455,16.0876227 15.4545455,15.9091773 L15.4545455,13.63645 L14.3465909,13.63645 C13.0581364,13.63645 11.8302318,13.0895773 10.9683136,12.1318636 L4.95339091,5.44841364 C4.43616818,4.87370909 3.69932727,4.54553636 2.92614545,4.54553636 L0.454545455,4.54553636 C0.203509091,4.54553636 0,4.34203182 0,4.09099091 L0,3.1819 C0,2.93085909 0.203509091,2.72735455 0.454545455,2.72735455 L2.92613636,2.72735455 C4.21459091,2.72735455 5.44249545,3.27422727 6.30441364,4.23194091 L12.3193318,10.9153773 C12.8365591,11.4900864 13.5734091,11.8182636 14.3465955,11.8182636 L15.4545455,11.8182636 L15.4545455,9.54553636 C15.4545455,9.36709091 15.5588591,9.20551364 15.7213227,9.13182727 C15.78125,9.10430455 15.8456136,9.09099091 15.9090909,9.09099091 C16.0169545,9.09099091 16.1239364,9.12960909 16.2082727,9.20329545 L19.8446364,12.3851136 C19.9436273,12.4716773 20,12.5964091 20,12.7273591 C20,12.8583091 19.9436273,12.9830409 19.8446364,13.0696 Z" id="Path" fill="#CECDCD"></path>
                    <path d="M19.8446364,3.29412273 L16.2082727,0.112304545 C16.0746591,-0.00444090909 15.8833455,-0.0332909091 15.7213227,0.0408363636 C15.5588591,0.114522727 15.4545455,0.2761 15.4545455,0.454545455 L15.4545455,2.72727273 L14.3465864,2.72727273 C13.0581364,2.72727273 11.8302318,3.27414545 10.9683136,4.23185909 L4.95339091,10.9153045 C4.43616818,11.4900136 3.69932727,11.8181818 2.92614545,11.8181818 L0.454545455,11.8181818 C0.203509091,11.8181818 0,12.0216909 0,12.2727273 L0,13.1818182 C0,13.4328545 0.203509091,13.6363636 0.454545455,13.6363636 L2.92613182,13.6363636 C4.21459091,13.6363636 5.44249545,13.0894909 6.30441364,12.1317773 L12.3193318,5.44833636 C12.8365545,4.87362727 13.5734045,4.54545455 14.3465864,4.54545455 L15.4545455,4.54545455 L15.4545455,6.81818182 C15.4545455,6.99662727 15.5588591,7.15820455 15.7213227,7.23189091 C15.78125,7.25940909 15.8456136,7.27272727 15.9090909,7.27272727 C16.0169545,7.27272727 16.1239364,7.23410909 16.2082727,7.16042273 L19.8446364,3.97860455 C19.9436273,3.89204545 20,3.76731364 20,3.63636364 C20,3.50541364 19.9436273,3.38068182 19.8446364,3.29412273 Z" id="Path" fill="#9E0616"></path>
                </g>
            </g>
        </g>
    </g>
</svg>