<?xml version="1.0" encoding="UTF-8"?>
<svg width="233px" height="233px" viewBox="0 0 233 233" version="1.1" xmlns="http://www.w3.org/2000/svg" xmlns:xlink="http://www.w3.org/1999/xlink">
    <!-- Generator: Sketch 52.3 (67297) - http://www.bohemiancoding.com/sketch -->
    <title>@2xIcon / User Copy 7</title>
    <desc>Created with Sketch.</desc>
    <defs>
        <path d="M15.5,0 L15.5,0 C24.0604136,-1.57252247e-15 31,6.93958638 31,15.5 L31,15.5 C31,24.0604136 24.0604136,31 15.5,31 L15.5,31 C6.93958638,31 1.04834831e-15,24.0604136 0,15.5 L0,15.5 C-1.04834831e-15,6.93958638 6.93958638,1.57252247e-15 15.5,0 Z" id="path-1"></path>
    </defs>
    <g id="Icones" stroke="none" stroke-width="1" fill="none" fill-rule="evenodd">
        <g transform="translate(-342.000000, -644.000000)">
            <rect fill="#FFFFFF" x="0" y="0" width="800" height="1519"></rect>
            <g id="Icon-/-atendimento-presencial" transform="translate(443.000000, 745.000000)">
                <mask id="mask-2" fill="white">
                    <use xlink:href="#path-1"></use>
                </mask>
                <use id="Rectangle-3-Copy-3" stroke="#B5B6B3" stroke-width="1" fill="#FFFFFF" fill-rule="nonzero" xlink:href="#path-1"></use>
                <g id="noun_person_113116" stroke-width="1" fill-rule="evenodd" mask="url(#mask-2)" fill="#00AF3F">
                    <g transform="translate(4.000000, 8.000000)" fill-rule="nonzero" id="Shape">
                        <path d="M23.1178434,18.3915278 C20.9033219,22.9054481 16.5762281,25.9763689 11.5912661,25.9998648 C6.60294547,26.0233764 2.25874077,22.9792096 0.0162985262,18.4750349 C1.50746468,17.6061266 4.08585608,16.1335517 4.89006869,16.0118752 C5.99000793,15.8676449 7.71324606,15.6873569 8.00656319,15.2186083 C8.29988032,14.7498596 8.5565328,12.8388074 8.5565328,12.8388074 C8.5565328,12.8388074 7.85990462,12.2979435 7.78657534,11.4325614 C7.71324606,10.5671793 7.56658749,9.80996991 7.56658749,9.80996991 C7.56658749,9.80996991 7.01661788,9.73785473 6.9432886,9.23304849 C6.86995931,8.76429983 6.61330683,7.86286011 6.5033129,7.61045698 C6.39331898,7.39411145 6.17333113,6.42055655 6.86995931,6.63690208 C6.61330683,5.55517441 6.39331898,3.71623738 6.53997754,3.21143113 C6.68663611,2.70662489 6.79663003,1.91335793 7.16327644,1.62489722 C7.52992285,1.37249409 7.93323391,1.37249409 7.93323391,1.37249409 C7.93323391,1.37249409 8.15322175,0.759515081 9.14316706,0.47105437 C10.1331124,0.182593658 10.9397345,-0.105867054 11.7096919,0.0383633021 C12.4796494,0.182593658 13.9828997,0.507111959 14.6428632,0.939803026 C14.8628511,1.08403338 15.1195036,1.37249409 15.3761561,1.73306998 C15.7428025,2.0215307 15.9261257,2.74268247 16.0361196,3.17537354 C16.1827782,3.68017979 15.9994549,5.55517441 15.7428025,6.60084449 C16.4394306,6.38449896 16.2194428,7.32199627 16.1094489,7.5743994 C15.9994549,7.79074493 15.7428025,8.69218465 15.6694732,9.1969909 C15.5961439,9.70179714 15.0461743,9.80996991 15.0461743,9.80996991 C15.0461743,9.80996991 14.8995157,10.5671793 14.8261864,11.4325614 C14.7528572,12.2979435 14.0928936,12.8388074 14.0928936,12.8388074 C14.0928936,12.8388074 14.3862107,14.713802 14.6428632,15.2186083 C14.8995157,15.6873569 16.6594185,15.8315873 17.7593577,15.9758176 C18.7501587,16.1102171 21.8668979,17.7332623 23.1178434,18.3915278 Z"></path>
                    </g>
                </g>
            </g>
        </g>
    </g>
</svg>