<svg width="43" height="44" viewBox="0 0 43 44" fill="none" xmlns="http://www.w3.org/2000/svg">
<path fill-rule="evenodd" clip-rule="evenodd" d="M21.1429 44C32.8198 44 42.2858 34.3741 42.2858 22.5C42.2858 10.6259 32.8198 1 21.1429 1C9.46601 1 0 10.6259 0 22.5C0 34.3741 9.46601 44 21.1429 44Z" stroke="#E3E3E3" stroke-width="1.00267"/>
<path fill-rule="evenodd" clip-rule="evenodd" d="M13.7412 14H29.2C29.6235 14 29.9412 14.3176 30.0471 14.7412V30.2C30.0471 30.6235 29.7294 30.9412 29.3059 30.9412H13.7412C13.3176 30.9412 13 30.6235 13 30.3059V14.7412C13 14.3176 13.3176 14 13.7412 14ZM15.5412 28.4H17.9765H18.0824V20.3529H15.5412V28.4ZM16.8118 19.2941C15.9647 19.2941 15.3294 18.5529 15.3294 17.8118C15.3294 16.9647 15.9647 16.3294 16.8118 16.3294C17.6588 16.3294 18.2941 16.9647 18.2941 17.8118C18.1882 18.5529 17.5529 19.2941 16.8118 19.2941ZM24.8588 28.4H27.2941V23.9529C27.2941 21.8353 26.8706 20.1412 24.3294 20.1412C23.1647 20.1412 22.3176 20.7765 22 21.4118V20.3529H19.5647V28.5059H22.1059V24.4824C22.1059 23.4235 22.3176 22.3647 23.5882 22.3647C24.8588 22.3647 24.8588 23.5294 24.8588 24.4824V28.4Z" fill="black"/>
</svg>
