<?xml version="1.0" encoding="utf-8"?>
<!-- Generator: Adobe Illustrator 24.0.1, SVG Export Plug-In . SVG Version: 6.00 Build 0)  -->
<svg version="1.1" id="Layer_1" xmlns="http://www.w3.org/2000/svg" xmlns:xlink="http://www.w3.org/1999/xlink" x="0px" y="0px"
	 viewBox="0 0 313.88 86.68" style="enable-background:new 0 0 313.88 86.68;" xml:space="preserve">
<style type="text/css">
	.st0{fill:#737372;}
	.st1{fill:#008F3D;}
	.st2{fill:#0072AA;}
	.st3{fill:#004A73;}
</style>
<g>
	<g>
		<path class="st0" d="M72.04,84.38h-0.53l-3.59-5.97v5.97h-0.5v-6.86h0.53l3.6,5.97v-5.97h0.49V84.38z"/>
		<path class="st0" d="M83.24,81.42c0,2.03-0.81,3.05-2.43,3.05c-1.62,0-2.43-1.02-2.43-3.05v-3.9h0.5v3.9
			c0,0.79,0.12,1.38,0.36,1.78c0.31,0.51,0.83,0.77,1.56,0.77c0.73,0,1.26-0.26,1.56-0.77c0.24-0.41,0.36-1,0.36-1.78v-3.9h0.5
			V81.42z"/>
		<path class="st0" d="M93.9,78.01h-2.18v6.37h-0.49v-6.37h-2.18v-0.49h4.86V78.01z"/>
		<path class="st0" d="M104.35,84.38h-0.58l-1.44-2.48c-0.27-0.46-0.57-0.69-0.89-0.69h-1.19v3.17h-0.5v-6.86h2.3
			c0.66,0,1.17,0.14,1.53,0.42c0.41,0.31,0.61,0.79,0.61,1.43c0,0.56-0.16,1-0.48,1.31c-0.32,0.31-0.77,0.49-1.34,0.53
			c0.2,0.2,0.36,0.39,0.46,0.56L104.35,84.38z M103.7,79.37c0-0.9-0.55-1.35-1.65-1.35h-1.8v2.71h1.8
			C103.15,80.73,103.7,80.28,103.7,79.37z"/>
		<path class="st0" d="M111.1,84.38h-0.5v-6.86h0.5V84.38z"/>
		<path class="st0" d="M122.04,83.39c-0.54,0.66-1.12,1.01-1.76,1.06l0.27,0.63l-0.64,1.23h-0.65l0.81-1.27l-0.25-0.58
			c-0.9-0.05-1.57-0.44-2-1.17c-0.35-0.6-0.53-1.38-0.53-2.34c0-1,0.19-1.8,0.57-2.41c0.47-0.74,1.17-1.11,2.11-1.11
			c0.45,0,0.84,0.09,1.17,0.27c0.29,0.16,0.59,0.43,0.89,0.81l-0.37,0.31c-0.26-0.31-0.51-0.53-0.74-0.67
			c-0.27-0.15-0.59-0.23-0.95-0.23c-0.8,0-1.38,0.32-1.75,0.96c-0.29,0.51-0.43,1.2-0.43,2.06c0,0.86,0.14,1.54,0.43,2.05
			c0.37,0.64,0.95,0.96,1.75,0.96c0.37,0,0.68-0.08,0.95-0.24c0.23-0.13,0.48-0.35,0.74-0.66L122.04,83.39z"/>
		<path class="st0" d="M133.37,84.38h-0.53l-0.81-2.09h-3.2l-0.81,2.09h-0.53l2.63-6.86h0.62L133.37,84.38z M131.98,76.34
			c-0.25,0.32-0.52,0.48-0.82,0.48c-0.19,0-0.44-0.07-0.75-0.21c-0.31-0.14-0.54-0.21-0.67-0.21c-0.14,0-0.29,0.1-0.44,0.3
			l-0.36-0.29c0.24-0.32,0.51-0.48,0.81-0.48c0.19,0,0.44,0.07,0.75,0.21c0.31,0.14,0.54,0.21,0.67,0.21c0.14,0,0.29-0.1,0.44-0.3
			L131.98,76.34z M131.85,81.82l-1.43-3.73l-1.42,3.73H131.85z"/>
		<path class="st0" d="M143.9,80.95c0,1-0.19,1.81-0.57,2.41c-0.46,0.74-1.16,1.11-2.11,1.11c-0.95,0-1.66-0.37-2.11-1.11
			c-0.38-0.6-0.57-1.41-0.57-2.41c0-1,0.19-1.81,0.57-2.41c0.46-0.74,1.16-1.11,2.11-1.11c0.95,0,1.65,0.37,2.11,1.11
			C143.71,79.14,143.9,79.95,143.9,80.95z M143.41,80.95c0-2.01-0.73-3.02-2.19-3.02c-1.46,0-2.18,1.01-2.18,3.02
			c0,2.01,0.73,3.02,2.18,3.02C142.68,83.97,143.41,82.96,143.41,80.95z"/>
		<path class="st0" d="M162.8,84.38h-0.53l-0.81-2.09h-3.2l-0.81,2.09h-0.53l2.63-6.86h0.62L162.8,84.38z M161.28,81.82l-1.43-3.73
			l-1.42,3.73H161.28z"/>
		<path class="st0" d="M173.17,84.38h-0.53l-3.59-5.97v5.97h-0.5v-6.86h0.53l3.6,5.97v-5.97h0.49V84.38z"/>
		<path class="st0" d="M180.16,84.38h-0.5v-6.86h0.5V84.38z"/>
		<path class="st0" d="M192.24,84.38h-0.5v-5.53l-2.05,5.53h-0.5l-2.04-5.51v5.51h-0.5v-6.86h0.5l2.29,6.17l2.29-6.17h0.5V84.38z"/>
		<path class="st0" d="M203.86,84.38h-0.53l-0.81-2.09h-3.2l-0.81,2.09h-0.53l2.63-6.86h0.62L203.86,84.38z M202.35,81.82
			l-1.43-3.73l-1.42,3.73H202.35z"/>
		<path class="st0" d="M213.47,84.38h-3.86v-6.86h0.5v6.4h3.36V84.38z"/>
		<path class="st0" d="M231.21,84.38h-4.27v-6.86h4.27v0.49h-3.77v2.58h3.29v0.47h-3.29v2.83h3.77V84.38z"/>
		<path class="st0" d="M249.47,77.52l-2.3,6.86h-0.53l-2.3-6.86h0.52l2.05,6.05l2.05-6.05H249.47z"/>
		<path class="st0" d="M259.54,84.38h-4.27v-6.86h4.27v0.49h-3.77v2.58h3.29v0.47h-3.29v2.83h3.77V84.38z"/>
		<path class="st0" d="M270.39,80.8l-0.01,3.58h-0.49v-1.03c-0.33,0.75-0.94,1.12-1.83,1.12c-0.93,0-1.63-0.37-2.08-1.11
			c-0.39-0.62-0.58-1.42-0.58-2.41c0-0.98,0.2-1.78,0.61-2.41c0.48-0.74,1.18-1.11,2.1-1.11c0.45,0,0.84,0.09,1.17,0.27
			c0.3,0.16,0.59,0.43,0.89,0.81l-0.37,0.31c-0.26-0.31-0.51-0.54-0.74-0.67c-0.27-0.15-0.59-0.23-0.95-0.23
			c-0.8,0-1.39,0.32-1.76,0.95c-0.3,0.52-0.45,1.21-0.45,2.07c0,0.85,0.15,1.53,0.44,2.05c0.37,0.65,0.94,0.97,1.72,0.97
			c0.67,0,1.16-0.3,1.47-0.89c0.24-0.45,0.36-1.05,0.36-1.78h-1.77v-0.5H270.39z"/>
		<path class="st0" d="M280.95,84.38h-4.27v-6.86h4.27v0.49h-3.77v2.58h3.29v0.47h-3.29v2.83h3.77V84.38z"/>
		<path class="st0" d="M291.51,78.01h-2.18v6.37h-0.49v-6.37h-2.18v-0.49h4.86V78.01z"/>
		<path class="st0" d="M301.8,84.38h-0.53l-0.81-2.09h-3.2l-0.81,2.09h-0.53l2.63-6.86h0.62L301.8,84.38z M300.29,81.82l-1.43-3.73
			l-1.42,3.73H300.29z"/>
		<path class="st0" d="M311.42,84.38h-3.86v-6.86h0.5v6.4h3.36V84.38z"/>
	</g>
	<g>
		<g>
			<path class="st1" d="M6.51,46.3c-0.01,1.04,0.24,2.92,0.24,4.24C6.7,59.48,13.4,67.55,22.07,70.37
				c-0.54-2.83-0.97-5.68-1.33-8.49c-0.33-2.54-0.63-5.08-0.88-7.63c-8.04-2.17-9.42-10.86-9.41-18.07c0,0.52,0.12,1.46,0.12,2.12
				c-0.01,5.95,3.13,12.05,9.08,13.73c-0.44-5.08-0.67-10.17-0.51-15.24c-4.21-1.86-5.1-6.91-5.09-11.24c0,0.26,0.06,0.73,0.06,1.06
				c-0.01,3.73,1.62,7.61,5.07,9.12c0.15-3.57,0.49-7.12,1.1-10.65c1.34-7.85,4.07-15.61,8.35-22.28
				C21.19,10.04,1.49,31.46,0.4,55.9c-0.64,14.26,10.11,27.55,22.81,29.08c1.15,0.14,2.32,0.19,3.48,0.17
				c-1.56-3.19-2.7-6.62-3.59-10.14C9.95,71.51,6.45,57.99,6.51,46.3z"/>
		</g>
		<g>
			<g>
				<defs>
					<path id="SVGID_1_" d="M28.52,85.2c1.7-0.02,3.41-0.2,5.08-0.53c1.26-0.25,2.51-0.58,3.72-0.99c2.02-0.68,3.95-1.59,5.72-2.68
						c0.81-0.5,1.58-1.04,2.31-1.61c0.43-0.33,0.84-0.68,1.23-1.04c0.49-0.44,0.96-0.9,1.4-1.38c1.08-1.16,2-2.43,2.75-3.78
						c1.51-2.74,2.26-5.83,1.99-9.16c-0.33-4.04-2.15-7.61-4.41-10.89C32.59,30.37,32.25,2.63,33.42,0.4l-0.11,0.09
						c-0.07,0.06-0.15,0.13-0.24,0.21c-0.2,0.18-0.45,0.41-0.76,0.69c-0.18,0.17-0.38,0.35-0.6,0.56c-0.29,0.27-0.6,0.57-0.95,0.9
						c-4.3,6.66-7.06,14.4-8.44,22.25c-1.83,10.43-1.42,21.11-0.29,31.67c0.18,1.72,0.38,3.43,0.6,5.14
						c0.25,1.95,0.52,3.93,0.84,5.9c0.58,3.55,1.32,7.1,2.36,10.5c0.51,1.69,1.1,3.34,1.78,4.94C27.91,83.91,28.21,84.56,28.52,85.2
						z"/>
				</defs>
				<use xlink:href="#SVGID_1_"  style="overflow:visible;fill:#004A73;"/>
				<clipPath id="SVGID_2_">
					<use xlink:href="#SVGID_1_"  style="overflow:visible;"/>
				</clipPath>
			</g>
		</g>
	</g>
	<g>
		<g>
			<path class="st2" d="M250.7,37.97l3.22-7.57c0,0-30.06-7.17-30.24,11.29c-0.02,1.79,1.24,3.8,2.34,5.08
				c2.4,2.8,5.83,3.86,9.33,4.56c2.78,0.55,11.61,1.31,7.98,6.23c-2.59,3.52-8.31,3.12-12.05,2.53c-2.37-0.38-4.69-0.99-6.97-1.72
				l-3.4,6.98c0,0,29.88,8.95,32.21-9.3c0.92-7.21-5.86-10.32-11.88-11.22c-2.58-0.38-11.33-2.02-7.61-6.48
				c1.69-2.02,5.38-2.13,7.84-2.24C242.24,36.07,251.17,36.85,250.7,37.97z"/>
			<path class="st2" d="M282.72,55.05c3.31-3.67,0.98-10.83,0.98-10.83c-2.33-9.13-16.46-7.19-16.46-7.19
				c-16.64,0.78-12.44,22.49-12.44,22.49c4.47,13.24,26.03,5.9,26.03,5.9l-1.43-6.71c-18.43,5.19-15.93-3.04-15.93-3.04
				L282.72,55.05z M270.11,44.05c6.62,0.54,5.19,4.65,5.19,4.65s-11.18,0.18-11.45,0C263.85,48.7,263.49,43.51,270.11,44.05z"/>
			<path class="st2" d="M287.73,39.06l1.97,6.42c0,0,16.64-3.93,14.31,1.7c0,0-20.04,0.45-19.5,11.54s18.07,8.77,27.38,7.16
				l1.61-19.86C313.5,46.02,315.65,31.92,287.73,39.06z M303.48,59.8c0,0-10.38,2.42-10.56-2.06c-0.18-4.47,10.56-3.4,10.56-3.4
				V59.8z"/>
		</g>
		<g>
			<g>
				<path class="st3" d="M141.65,52.47c0.11-2.93,0.25-6.35,0.37-9.77c0.05-1.26,0.08-2.53,0.13-3.79c0.02-0.52-0.03-0.41,0.44-0.58
					c1.34-0.48,2.74-0.77,4.15-0.98c3.78-0.54,7.58-0.65,11.39-0.55c1.47,0.04,2.92,0.23,4.32,0.69c0.55,0.18,1.07,0.4,1.56,0.7
					c0.15,0.09,0.26,0.12,0.44,0.04c1.33-0.62,2.74-0.92,4.18-1.12c2.37-0.33,4.75-0.4,7.13-0.31c1.8,0.07,3.57,0.36,5.26,1.03
					c3.05,1.21,4.87,3.46,5.52,6.66c0.25,1.21,0.32,2.43,0.27,3.65c-0.07,1.84-0.13,3.67-0.2,5.51c-0.12,3.19-0.25,6.39-0.37,9.58
					c-0.04,1.13-0.08,2.26-0.12,3.39c-0.01,0.19-0.02,0.37-0.02,0.56c0,0.15-0.08,0.21-0.23,0.2c-0.08-0.01-0.16,0-0.24,0
					c-2.84,0-5.67,0-8.51,0c-0.47,0-0.44,0.06-0.43-0.42c0.12-3.37,0.25-6.73,0.38-10.1c0.06-1.56,0.12-3.11,0.17-4.67
					c0.05-1.3,0.1-2.61,0.15-3.91c0.02-0.53-0.01-1.06-0.12-1.59c-0.31-1.49-1.21-2.31-2.73-2.38c-1.72-0.08-3.43,0.1-5.07,0.68
					c-0.45,0.16-0.36,0.11-0.37,0.49c-0.14,3.74-0.28,7.48-0.42,11.22c-0.1,2.79-0.21,5.59-0.31,8.38c-0.02,0.67-0.05,1.33-0.08,2
					c-0.01,0.29-0.01,0.3-0.33,0.3c-1.86,0-3.73,0-5.59,0c-1.07,0-2.13,0-3.2,0c-0.3,0-0.31-0.01-0.3-0.31
					c0.06-1.73,0.13-3.46,0.19-5.19c0.03-0.9,0.08-1.81,0.11-2.71c0.12-3.29,0.23-6.57,0.36-9.86c0.02-0.55,0.07-1.09,0.05-1.64
					c-0.02-0.53-0.09-1.06-0.28-1.56c-0.37-0.99-1.08-1.56-2.11-1.73c-0.91-0.16-1.83-0.08-2.75-0.05c-0.93,0.03-1.86,0.1-2.79,0.2
					c-0.34,0.04-0.34,0.03-0.36,0.38c-0.03,0.74-0.06,1.49-0.08,2.24c-0.09,2.58-0.18,5.16-0.27,7.74c-0.1,2.87-0.21,5.75-0.32,8.62
					c-0.04,1.18-0.09,2.37-0.14,3.55c-0.01,0.31-0.01,0.31-0.31,0.31c-2.94,0-5.89,0-8.83,0c-0.28,0-0.29-0.01-0.28-0.29
					c0.06-1.6,0.12-3.19,0.18-4.79c0.03-0.81,0.07-1.62,0.1-2.43C141.47,57.56,141.55,55.26,141.65,52.47z"/>
				<path class="st3" d="M104.96,52.99c0.13-3.38,0.26-6.76,0.39-10.14c0.05-1.29,0.08-2.58,0.14-3.87c0.03-0.6-0.08-0.47,0.51-0.68
					c1.31-0.47,2.66-0.75,4.03-0.95c3.61-0.52,7.24-0.64,10.87-0.57c1.41,0.03,2.81,0.23,4.21,0.44c0.08,0.01,0.16,0.03,0.24,0.04
					c0.46,0.06,0.46,0.06,0.49,0.54c0.08,1.15-0.14,2.25-0.46,3.34c-0.27,0.91-0.61,1.79-1.08,2.61c-0.17,0.29-0.36,0.56-0.58,0.81
					c-0.18,0.2-0.38,0.25-0.64,0.19c-0.54-0.13-1.09-0.21-1.65-0.31c-1.16-0.2-2.33-0.17-3.51-0.12c-0.98,0.04-1.97,0.11-2.95,0.21
					c-0.22,0.02-0.3,0.09-0.31,0.31c-0.02,0.79-0.06,1.57-0.09,2.35c-0.06,1.8-0.12,3.59-0.19,5.39c-0.12,3.18-0.24,6.36-0.37,9.54
					c-0.06,1.6-0.12,3.19-0.18,4.79c0,0.09-0.01,0.19-0.01,0.28c0,0.13-0.05,0.2-0.19,0.19c-0.08,0-0.16,0-0.24,0
					c-2.85,0-5.7,0-8.55,0c-0.47,0-0.44,0.06-0.43-0.42c0.08-2.08,0.15-4.15,0.23-6.23C104.77,58.15,104.87,55.57,104.96,52.99
					C104.97,52.99,104.96,52.99,104.96,52.99z"/>
				<path class="st3" d="M128.54,51.8c0.12-3.12,0.25-6.54,0.38-9.96c0.06-1.54,0.11-3.09,0.17-4.63c0-0.09,0.01-0.19,0.01-0.28
					c0-0.11,0.05-0.17,0.17-0.17c0.08,0,0.16,0,0.24,0c2.86,0,5.72,0,8.59,0c0.04,0,0.08,0,0.12,0c0.3,0.01,0.3,0.01,0.29,0.32
					c-0.1,2.79-0.21,5.59-0.31,8.38c-0.11,2.86-0.21,5.72-0.32,8.58c-0.11,2.85-0.21,5.69-0.32,8.54c-0.05,1.44-0.11,2.87-0.16,4.31
					c0,0.07,0,0.13-0.01,0.2c-0.02,0.29-0.02,0.3-0.33,0.3c-2.92,0-5.83,0-8.75,0c-0.33,0-0.34,0-0.33-0.32
					c0.07-1.92,0.14-3.83,0.21-5.75c0.03-0.78,0.06-1.57,0.09-2.35C128.36,56.67,128.45,54.38,128.54,51.8z"/>
				<g>
					<path class="st3" d="M101.91,38.89c-0.25-1.71-0.85-3.29-1.9-4.68c-1.11-1.47-2.56-2.5-4.22-3.26
						c-2.34-1.07-4.83-1.52-7.38-1.74c-1.63-0.14-3.27-0.15-4.91-0.15c-4.67,0-9.35,0-14.02,0c-0.65,0-0.56-0.11-0.59,0.57
						c-0.1,2.26-0.17,4.52-0.26,6.78c-0.08,2.06-0.15,4.12-0.23,6.19c-0.14,3.65-0.27,7.29-0.41,10.94
						c-0.09,2.57-0.18,5.14-0.27,7.7c-0.04,1.14-0.1,2.29-0.15,3.43c-0.07,0.21-0.01,0.43-0.03,0.64c0.01,0.47-0.09,0.93-0.08,1.39
						c-0.02,0.17,0.04,0.36-0.04,0.52c0,0.05,0,0.11,0,0.16c0.07,0,0.13-0.01,0.2-0.01c2.97,0,5.94,0,8.91,0
						c0.37,0,0.37,0,0.39-0.37c0.05-1.42,0.11-2.85,0.16-4.27c0.09-2.57,0.18-5.14,0.27-7.7c0-0.08,0.01-0.16,0.01-0.24
						c0-0.15,0.07-0.22,0.22-0.21c0.09,0.01,0.19,0,0.28,0c2.12,0,4.23,0.01,6.35,0c2.13-0.01,4.25-0.16,6.35-0.56
						c1.78-0.34,3.51-0.85,5.14-1.68c2.89-1.48,4.89-3.72,5.8-6.87C102.12,43.33,102.24,41.12,101.91,38.89z M92.48,43.04
						c-0.29,1.12-0.94,1.98-1.9,2.62c-0.9,0.6-1.91,0.91-2.96,1.11c-1.13,0.22-2.27,0.28-3.42,0.28c-2.05,0.01-4.1,0-6.15,0
						c-0.04,0-0.08,0-0.12,0c-0.28-0.01-0.29-0.01-0.28-0.29c0.03-0.89,0.06-1.78,0.1-2.67c0.03-0.76,0.06-1.52,0.09-2.27
						c0,0,0,0,0,0c0.04-1.17,0.08-2.34,0.12-3.51c0.02-0.49,0.05-0.98,0.06-1.48c0-0.18,0.07-0.22,0.24-0.22
						c0.55,0.01,1.09,0,1.64,0c1.94,0,3.89-0.01,5.83,0.02c1.33,0.03,2.65,0.23,3.9,0.71c0.6,0.23,1.16,0.54,1.64,0.96
						c0.87,0.76,1.28,1.74,1.37,2.87C92.7,41.81,92.64,42.43,92.48,43.04z"/>
				</g>
				<g>
					<path class="st3" d="M202.37,67.79c0,0.03,0,0.05,0,0.08c0.77,0,1.54,0,2.32,0c0-0.03,0-0.05,0-0.08
						C203.91,67.76,203.14,67.77,202.37,67.79z"/>
					<path class="st3" d="M218.43,46.07c-0.14-1.31-0.47-2.56-1.07-3.74c-1-1.93-2.56-3.23-4.52-4.11c-1.78-0.8-3.67-1.17-5.6-1.35
						c-2.58-0.23-5.16-0.14-7.73,0.24c-2.33,0.35-4.62,0.9-6.87,1.59c-0.26,0.08-0.54,0.14-0.79,0.28c0.02,0.07,0.03,0.14,0.06,0.2
						c0.78,2.12,1.56,4.24,2.34,6.36c0.11,0.29,0.11,0.29,0.43,0.21c2.63-0.67,5.29-1.19,8.01-1.35c1.17-0.07,2.34-0.07,3.5,0.12
						c0.67,0.11,1.32,0.3,1.89,0.69c0.56,0.39,0.88,0.91,0.93,1.6c0.02,0.34,0.02,0.34-0.34,0.34c-1.95,0-3.89,0.1-5.82,0.31
						c-1.84,0.2-3.66,0.52-5.44,1.05c-1.67,0.5-3.25,1.17-4.67,2.19c-1.5,1.08-2.62,2.45-3.22,4.22c-0.59,1.74-0.66,3.53-0.33,5.32
						c0.34,1.86,1.22,3.42,2.69,4.62c0.6,0.49,1.26,0.9,1.95,1.23c1.91,0.91,3.95,1.31,6.04,1.51c0.82,0.08,1.65,0.11,2.47,0.17
						c0.06-0.08,0.15-0.11,0.25-0.11c0.61-0.03,1.22-0.03,1.82,0c0.09,0,0.18,0.04,0.25,0.11c1.58-0.09,3.17-0.1,4.75-0.23
						c1.79-0.15,3.57-0.35,5.33-0.74c0.92-0.2,1.83-0.47,2.71-0.82c0.28-0.11,0.44-0.24,0.41-0.57c-0.03-0.3,0.01-0.61,0.02-0.92
						c0.13-3.46,0.26-6.92,0.39-10.38c0.06-1.58,0.11-3.17,0.18-4.75C218.51,48.28,218.55,47.18,218.43,46.07z M208.72,55.55
						c-0.02,0.58-0.04,1.17-0.07,1.91c-0.05,0.58-0.04,1.33-0.07,2.07c-0.01,0.32-0.02,0.32-0.32,0.36
						c-0.76,0.11-1.54,0.16-2.31,0.19c-1.2,0.05-2.39,0.08-3.59,0.02c-0.74-0.04-1.48-0.15-2.19-0.39
						c-0.33-0.11-0.64-0.26-0.92-0.48c-0.89-0.69-0.96-1.9-0.16-2.68c0.36-0.35,0.79-0.58,1.25-0.76c0.96-0.39,1.96-0.57,2.98-0.71
						c1.64-0.23,3.29-0.27,4.94-0.3c0.09,0,0.19,0,0.28,0c0.15-0.01,0.22,0.05,0.21,0.21C208.73,55.18,208.73,55.36,208.72,55.55z"
						/>
					<path class="st3" d="M202.61,67.67c-0.09,0-0.18,0.04-0.25,0.11c0.77-0.02,1.55-0.03,2.32,0c-0.07-0.07-0.15-0.11-0.25-0.11
						C203.83,67.64,203.22,67.64,202.61,67.67z"/>
				</g>
			</g>
		</g>
	</g>
</g>
</svg>
