<?xml version="1.0" encoding="UTF-8"?>
<svg width="24px" height="24px" viewBox="0 0 24 24" version="1.1" xmlns="http://www.w3.org/2000/svg" xmlns:xlink="http://www.w3.org/1999/xlink">
    <!-- Generator: Sketch 51.3 (57544) - http://www.bohemiancoding.com/sketch -->
    <title>Icon / Busca</title>
    <desc>Created with Sketch.</desc>
    <defs></defs>
    <g id="Icon-/-Busca" stroke="none" stroke-width="1" fill="none" fill-rule="evenodd" fill-opacity="0.8">
        <path d="M15.4369354,9.93768224 L14.7105775,9.93768224 L14.4580903,10.1883254 C15.3500286,11.2284032 15.89251,12.5767538 15.89251,14.054085 C15.89251,17.3380596 13.2304174,20 9.946255,20 C6.66209262,20 4,17.3380596 4,14.054085 C4,10.7701103 6.66209262,8.10816992 9.946255,8.10816992 C11.4236707,8.10816992 12.7711835,8.64970556 13.8113208,9.54067806 L14.0638079,9.29003488 L14.0638079,8.565548 L18.6360206,4 L20,5.36390144 L15.4369354,9.93768224 L15.4369354,9.93768224 Z M9.946255,9.93768224 C7.67204117,9.93768224 5.82961692,11.7800011 5.82961692,14.054085 C5.82961692,16.327254 7.67204117,18.1704877 9.946255,18.1704877 C12.219554,18.1704877 14.0628931,16.327254 14.0628931,14.054085 C14.0628931,11.7800011 12.219554,9.93768224 9.946255,9.93768224 L9.946255,9.93768224 Z" id="Mask" fill="#000000" transform="translate(12.000000, 12.000000) scale(1, -1) translate(-12.000000, -12.000000) "></path>
    </g>
</svg>