<svg version="1" xmlns="http://www.w3.org/2000/svg" width="4510.667" height="4510.667" viewBox="0 0 3383.000000 3383.000000"><path d="M42.9 1334.4c-17.5 4.9-33.2 19.8-40.2 38.2l-2.2 5.9L.2 1681c-.2 278.8-.1 303 1.4 308.5 5.1 18.4 17.1 33 33.4 40.2 12.3 5.5 2.3 5.3 240.3 5.3 181.9-.1 221.3-.3 226.5-1.4 19.2-4.1 35.5-19.1 41.5-38.1 3.2-10.1 3.1-25.2-.2-35.3-4.6-14.2-14.4-26-27-32.6-13.3-7-.3-6.6-210.3-6.6H116v-267.8c0-263.5 0-268-2-275.6-5.1-19.9-19.7-35.7-38.9-42.3-5.3-1.8-8.7-2.2-17.1-2.2-5.8.1-12.6.6-15.1 1.3zM3122.1 1483.6c-74 6.7-127.3 26.6-162.9 60.9-13.7 13.1-21.9 24.1-29.7 40-13.3 27-17.9 56.4-14 89.5 8.5 71.5 52.1 112.1 141.5 131.5 20.8 4.5 45 8.3 80 12.5 54.4 6.6 78.9 11 95.9 17.1 29 10.5 40.4 25.7 37.9 50.2-1.1 10.7-5.3 18.5-15.1 28.2-12.6 12.4-30 20.5-55 25.6-67.3 13.7-156.1-1.6-214.6-37-26.5-16.1-54.6-14.5-73.1 3.9-19.8 19.7-20 49.1-.5 71.9 26.1 30.6 84.3 55.6 152.5 65.6 48.8 7.2 110.7 7.6 148.5 1 80.3-14.1 137.3-53.4 159.5-110.1 8.1-20.8 10.4-35.5 9.7-63-.6-23.4-1.9-32.4-7.3-48.3-7-21.1-16.6-36.3-32.5-51.5-21.6-20.8-48.8-33.9-92.2-44.5-20.3-5-45.4-8.9-90.2-14.1-66.8-7.7-91-12.9-110.5-23.8-22.4-12.4-29.9-36-18.9-58.9 3.2-6.6 15.9-19 23.9-23.3 21.4-11.5 43.4-16.8 79.8-19.1 15.3-1 23.3-1 39.2-.1 47.4 2.9 82.4 10.4 113.3 24.3 23.1 10.4 37.2 11.2 54.5 3.3 17.2-7.8 29.2-27 29.2-46.6 0-18.5-10.9-36.7-29.1-48.4-28.6-18.6-75.5-31.6-132.9-36.9-19.2-1.8-66.7-1.8-86.9.1zM1536 1488.6c-42.3 5.6-81.9 24.2-111.2 52.2l-7.7 7.4-.6-3.9c-2.3-15.8-7.2-26-17-35.8-11.2-11.3-23.4-16.5-38.5-16.5-15.1 0-27.2 5.2-38.7 16.6-8.2 8-13.6 17.8-15.9 28.7-1.1 5.1-1.3 47.3-1.4 228.5 0 245.5-.4 228.8 6.3 242 18.2 35.5 62.5 42.4 89.4 13.9 6-6.4 9.7-12.5 13.2-22l2.6-7.2.3-159.8.2-159.8 5.1-7.7c30.8-46.7 77.7-70.4 128.9-65.3 15.1 1.6 25.4 4.2 36.9 9.7 34 16 53.2 46.4 60.9 96.4 1.4 9.1 1.7 28.7 2.1 149l.6 138.5 2.2 6.6c2.8 8.1 8.9 17.6 15.3 23.9 14.5 14.1 36.6 19.2 54.9 12.7 17.6-6.2 31-20.6 36.9-39.7 1.5-5 1.7-17.7 2-141.5.2-87.1-.1-144.8-.7-160.4l-1.1-24.4 7.2-9.6c8.8-11.8 24.7-27.7 35.6-35.4 16.6-11.9 36.3-20.5 55.9-24.4 12.2-2.4 37.6-2.4 49.3.1 32.6 6.8 56.2 25 71.3 55.2 3.8 7.6 9.3 23.9 11.7 35 4.7 22 5 29.1 5 167.5 0 124.9.1 129.9 1.9 137.2 2.3 8.9 4.4 13.2 10.2 21 16.2 21.8 46.6 28.4 70.2 15.2 11.7-6.6 21-18.2 26.1-32.5l3.1-8.5v-151c0-119-.3-153.8-1.3-164-11.6-112.1-73.1-178.1-175.9-188.5-24.4-2.5-61.6-.4-86.8 5-44.8 9.5-86.8 32.1-116.9 62.8l-5.9 6-6.7-8.6c-23.5-30.4-59.4-52.6-99.3-61.3-22-4.8-57.2-6.3-79.7-3.3zM672 1492.2c-17.9 2-35.5 15-43.6 32.3-5.7 12.1-5.5 5.3-5.1 173 .3 150.8.4 154.2 2.4 165 4.3 22.6 8.1 36.2 15 52.4 21.5 51.4 61.5 91 112.8 111.8 30.2 12.3 57 17.3 92.2 17.3 26.8 0 45.4-2.6 71-10.1 31-9 67.4-27.7 95.3-48.9 4.3-3.3 8.1-6 8.3-6 .2 0 .7 3.5 1 7.7.8 10.3 3.9 18.9 9.9 27.9 10.8 16.1 26.4 24.6 45.3 24.6 24.3 0 44.2-14.8 52.9-39.2l3.1-8.5.3-221.5c.3-248.1.7-231.5-6.9-246.9-7.7-15.5-22.5-27-38.6-30.2-8.4-1.6-21.4-.7-28.8 2-15.6 5.6-28.5 19.1-34.7 36.1l-2.3 6.5-.3 157.1-.2 157.1-6.7 7.9c-19.8 23.6-48.9 46.3-72.9 57-11.7 5.2-24.8 9.5-37.2 12.1-11.5 2.4-14.7 2.7-33.7 2.7-15.7 0-23.4-.4-30.5-1.7-29.7-5.5-53-17.3-70.6-36-16.5-17.5-26.2-38-32.1-67.4-1.5-8-1.8-21.4-2.3-148.3-.7-154.2-.1-141.3-7.1-155.5-5.8-11.8-17.9-22.7-30.4-27.4-7.1-2.7-17.3-3.8-25.5-2.9zM2709.5 1492.2c-7.9 1-11.8 2.4-19.4 6.5-12.5 6.9-22.5 19.8-26.8 34.5l-2.3 8v310.4l-3.7 4.5c-6.6 8-23.7 25-32.8 32.7-23.8 20.1-53.5 34.6-82.3 40.3-19.9 3.9-47.7 3.6-68-.6-49.3-10.5-81.8-41-93.7-88.4-5.5-21.9-5.5-20.7-5.5-162 0-86.4-.4-132.8-1.1-137.1-2.1-13.4-9.9-27.5-19.6-35.9-5.9-5-16.9-10.5-24.4-12.1-7.8-1.7-22-.8-29.4 1.8-15.5 5.7-28.6 19.3-34.7 36.2l-2.3 6.5V1693c0 173.4-.4 162.6 7 191.5 15.6 60.9 54.3 109.2 109 136.1 21.6 10.6 42.7 17.2 67.5 21.1 16.6 2.6 60.8 2.6 76.5 0 45.1-7.6 93.4-29 130.2-57.8 3.5-2.7 6.5-4.9 6.8-4.9.3 0 .5 2.2.5 5 0 13.4 6.6 28.7 16.8 38.9 17.8 17.7 40.7 21.5 63.2 10.5 14.2-7 26.2-22.2 30.1-38.4 1.2-4.5 1.4-44.7 1.4-230.5v-225l-2.8-8c-9.4-26.7-34.1-42.8-60.2-39.3z"/></svg>
